<svg preserveAspectRatio="none" overflow="visible" style="display: block;" width="16.0011" height="16" viewBox="0 0 16.0011 16" fill="none" xmlns="http://www.w3.org/2000/svg">
<g id="icon-49bdfa">
<path id="Vector" d="M12.7396 0C13.6046 0 14.4342 0.343616 15.0458 0.955257C15.6574 1.5669 16.0011 2.39646 16.0011 3.26145V12.7385C16.0011 13.6035 15.6574 14.4331 15.0458 15.0447C14.4342 15.6564 13.6046 16 12.7396 16H3.26145C2.39646 16 1.5669 15.6564 0.955258 15.0447C0.343617 14.4331 4.76837e-07 13.6035 4.76837e-07 12.7385V3.26252C4.76837e-07 2.39753 0.343617 1.56796 0.955258 0.956324C1.5669 0.344683 2.39646 0.0010668 3.26145 0.0010668L12.7396 0ZM6.4877 11.3388C6.40063 11.4606 6.28575 11.5599 6.15262 11.6283C6.01948 11.6968 5.87193 11.7325 5.72221 11.7325C5.5725 11.7325 5.42494 11.6968 5.29181 11.6283C5.15867 11.5599 5.04379 11.4606 4.95672 11.3388L3.07902 8.70894H1.41895V12.7385C1.41895 13.7564 2.24365 14.581 3.26039 14.581H12.7385C13.7553 14.581 14.58 13.7564 14.581 12.7385V8.70894H12.6745C12.5248 8.70892 12.3772 8.67307 12.2442 8.6044C12.1111 8.53573 11.9964 8.43623 11.9096 8.3142L10.2773 6.03107L6.4877 11.3388ZM3.26145 1.41895C2.24472 1.41895 1.42002 2.24365 1.42002 3.26145V7.28999H3.32547C3.62846 7.28999 3.91332 7.43722 4.08935 7.68474L5.72168 9.96786L9.51337 4.6612C9.59466 4.54762 9.70019 4.45354 9.82232 4.38577C9.94444 4.318 10.0801 4.27824 10.2195 4.26935C10.3589 4.26047 10.4985 4.28269 10.6282 4.33441C10.758 4.38612 10.8746 4.46604 10.9697 4.56838L11.0443 4.6612L12.921 7.28999H14.5821V3.26145C14.5821 2.24365 13.7563 1.41895 12.7396 1.41895H3.26145Z" fill="#EBF4FF"/>
</g>
</svg>
